<svg version="1.1" id="Layer_1" xmlns="http://www.w3.org/2000/svg" xmlns:xlink="http://www.w3.org/1999/xlink" x="0px" y="0px"
	 width="100%" viewBox="0 0 512 512" enable-background="new 0 0 512 512" xml:space="preserve">
<path fill="#FDEECC" opacity="1.000000" stroke="none"
	d="
M168.397614,418.995209 
	C167.430557,413.580444 164.015732,411.796356 158.757324,411.822906 
	C134.598206,411.944855 110.438118,411.876495 86.278381,411.876465 
	C84.459038,411.876434 82.639694,411.876495 80.457611,411.876495 
	C80.457611,309.970612 80.457611,208.296661 80.457611,106.123543 
	C82.161537,106.123543 83.779366,106.123550 85.397194,106.123550 
	C110.390022,106.123550 135.383514,106.041893 160.374756,106.240784 
	C163.087036,106.262360 166.210754,107.311562 168.423248,108.892357 
	C183.345551,119.554161 204.664200,122.633179 225.028961,109.203178 
	C229.719818,113.959061 234.479446,118.825317 239.283875,123.646912 
	C248.339386,132.734756 257.397858,141.819885 266.501801,150.859100 
	C270.526520,154.855209 275.162231,155.257202 278.346680,152.044067 
	C281.560944,148.800858 281.148407,144.331116 277.044647,140.194122 
	C267.188202,130.257874 257.260712,120.392128 247.370636,110.489159 
	C246.230209,109.347267 245.145294,108.149940 243.224365,106.123535 
	C245.962845,106.123535 247.693710,106.123535 249.424591,106.123535 
	C302.909241,106.123535 356.394073,106.062592 409.878357,106.206367 
	C416.051453,106.222961 420.944397,105.371773 421.803467,98.139130 
	C428.494202,98.139130 434.785156,98.139130 441.023926,98.139130 
	C443.909027,105.429390 444.930847,106.119637 452.808319,106.122162 
	C467.623962,106.126915 482.439575,106.123535 497.690338,106.123535 
	C497.795593,107.699356 497.973724,109.122833 497.973877,110.546333 
	C497.986145,213.350189 498.037781,316.154083 497.952209,418.957886 
	C497.925171,451.437317 471.510895,476.897461 439.264526,475.921387 
	C410.358795,475.046417 386.057953,451.037628 384.940247,422.250061 
	C384.620483,414.013306 382.485687,411.881836 374.421875,411.880768 
	C316.105255,411.872986 257.788635,411.906616 199.472122,411.823395 
	C194.437912,411.816223 190.565308,412.878723 188.686188,418.699188 
	C181.516922,419.017517 174.957260,419.006378 168.397614,418.995209 
M302.522797,211.936539 
	C298.921021,213.339005 297.622559,216.157608 297.623779,219.815765 
	C297.631592,243.293457 297.575378,266.771362 297.666748,290.248688 
	C297.688507,295.840942 300.560638,298.718384 306.031158,298.555084 
	C318.980896,298.168457 331.463928,295.702454 342.770844,288.979309 
	C351.899994,283.551056 358.353912,276.074402 360.098175,265.239197 
	C362.488373,250.391693 357.175201,238.455139 345.962006,228.951797 
	C336.383179,220.833603 325.062347,216.122223 313.021790,213.080353 
	C309.858978,212.281311 306.521027,212.175644 302.522797,211.936539 
M348.499847,338.763733 
	C356.658661,338.763702 364.817474,338.766205 372.976288,338.762939 
	C380.920837,338.759796 384.748749,336.299286 384.784943,331.181244 
	C384.821075,326.065887 381.066467,323.649170 373.040222,323.648743 
	C322.422455,323.646088 271.804688,323.646729 221.186935,323.650757 
	C219.689224,323.650879 218.187897,323.643250 216.694504,323.738037 
	C212.383484,324.011627 209.975098,326.460114 209.477921,330.619537 
	C209.009781,334.536072 211.883331,337.902130 216.140625,338.586121 
	C217.768555,338.847626 219.459641,338.757416 221.121933,338.757721 
	C263.247894,338.765381 305.373871,338.763733 348.499847,338.763733 
M438.813904,273.125275 
	C443.100311,256.811768 441.119507,241.648560 429.544830,228.820526 
	C418.069427,216.102524 400.295135,216.416611 388.724792,229.037155 
	C374.123291,244.964066 374.115631,273.013458 388.708527,288.936829 
	C400.192780,301.468140 417.598236,302.000549 429.081909,289.469055 
	C433.109070,285.074463 435.431732,279.117920 438.813904,273.125275 
M205.013580,277.363129 
	C205.825851,278.995972 206.548416,280.681061 207.463943,282.253815 
	C220.069656,303.908722 245.967804,304.081604 258.290771,282.275330 
	C267.154449,266.590546 266.995972,250.323196 257.799377,234.835220 
	C245.545547,214.198532 220.365829,214.335876 208.008698,234.936020 
	C200.068832,248.172272 199.394577,262.225800 205.013580,277.363129 
M169.500122,219.317276 
	C161.671555,219.318726 153.841110,219.215668 146.015091,219.357773 
	C140.653656,219.455109 137.236969,222.569992 137.230911,226.930893 
	C137.224823,231.309982 140.628052,234.309204 146.014633,234.432648 
	C150.948257,234.545731 155.886536,234.456665 161.213562,234.456665 
	C161.213562,236.652786 161.213562,238.285172 161.213562,239.917572 
	C161.213562,255.574707 161.213318,271.231842 161.214127,286.888977 
	C161.214188,288.054901 161.160965,289.224762 161.236664,290.386017 
	C161.561096,295.361786 164.608200,298.597565 168.884460,298.559723 
	C173.236450,298.521210 176.213730,295.369446 176.240326,290.258270 
	C176.326981,273.602203 176.276718,256.945404 176.279068,240.288910 
	C176.279327,238.502884 176.279114,236.716873 176.279114,235.182312 
	C177.147385,234.797470 177.449738,234.548965 177.754868,234.545502 
	C181.918121,234.498077 186.081924,234.499741 190.245285,234.459183 
	C197.061295,234.392776 200.340393,231.875443 200.258163,226.804443 
	C200.177887,221.853867 196.795334,219.361969 189.988220,219.325394 
	C183.492371,219.290482 176.996185,219.317490 169.500122,219.317276 
M269.499939,378.827332 
	C291.159424,378.827301 312.818909,378.838226 334.478394,378.820526 
	C341.004913,378.815216 344.731293,375.982635 344.690338,371.164398 
	C344.650238,366.446716 341.178467,363.815918 334.853210,363.813538 
	C301.530945,363.801117 268.208435,363.759766 234.886810,363.905518 
	C232.436295,363.916229 229.154190,364.622162 227.770721,366.272461 
	C226.265015,368.068542 225.690674,371.524323 226.209564,373.933594 
	C226.995117,377.581024 230.387421,378.815887 234.011337,378.820374 
	C245.507507,378.834503 257.003693,378.826660 269.499939,378.827332 
z"/>
<path fill="#FCDF9B" opacity="1.000000" stroke="none" 
	d="
M168.296722,419.368958 
	C174.957260,419.006378 181.516922,419.017517 188.545883,419.029449 
	C190.925339,425.618347 192.602798,426.869232 199.704697,426.869995 
	C254.510483,426.875916 309.316284,426.873413 364.122070,426.873566 
	C365.940094,426.873566 367.758118,426.873596 368.545319,426.873596 
	C372.056183,436.249725 374.428253,445.534027 378.892212,453.670624 
	C383.292511,461.691132 389.811218,468.549408 395.280060,475.758789 
	C394.982361,475.778900 393.604462,475.953186 392.226593,475.953369 
	C286.446411,475.965820 180.666229,475.981964 74.886040,475.952728 
	C46.527706,475.944885 24.244856,458.951630 17.654770,432.460022 
	C17.257200,430.861816 17.039726,429.218842 16.604164,426.873596 
	C18.702528,426.873596 20.443966,426.873657 22.185406,426.873657 
	C67.495972,426.873627 112.806534,426.877625 158.117096,426.869110 
	C164.804108,426.867859 166.728409,425.478882 168.296722,419.368958 
z"/>
<path fill="#7C54CB" opacity="1.000000" stroke="none" 
	d="
M177.020416,45.147266 
	C189.537369,35.104202 207.132935,35.795490 219.017776,46.797245 
	C230.949890,57.842739 232.707443,75.425995 222.640961,89.761475 
	C209.192535,92.431671 198.368820,87.949577 189.242966,79.541206 
	C179.306671,70.386124 175.962402,58.438885 177.020416,45.147266 
z"/>
<path fill="#5B2BBD" opacity="1.000000" stroke="none" 
	d="
M176.707825,45.252106 
	C175.962402,58.438885 179.306671,70.386124 189.242966,79.541206 
	C198.368820,87.949577 209.192535,92.431671 222.393066,90.012680 
	C210.295593,105.599159 188.908722,107.647911 174.901932,94.584236 
	C160.179138,80.852753 160.828751,59.438187 176.707825,45.252106 
z"/>
<path fill="#050504" opacity="1.000000" stroke="none" 
	d="
M302.893127,211.844055 
	C306.521027,212.175644 309.858978,212.281311 313.021790,213.080353 
	C325.062347,216.122223 336.383179,220.833603 345.962006,228.951797 
	C357.175201,238.455139 362.488373,250.391693 360.098175,265.239197 
	C358.353912,276.074402 351.899994,283.551056 342.770844,288.979309 
	C331.463928,295.702454 318.980896,298.168457 306.031158,298.555084 
	C300.560638,298.718384 297.688507,295.840942 297.666748,290.248688 
	C297.575378,266.771362 297.631592,243.293457 297.623779,219.815765 
	C297.622559,216.157608 298.921021,213.339005 302.893127,211.844055 
M312.686707,274.430756 
	C312.686707,277.198212 312.686707,279.965637 312.686707,283.295074 
	C317.742493,282.081879 322.129395,281.200195 326.405060,279.940826 
	C329.086426,279.151062 331.724243,278.015533 334.169128,276.653748 
	C346.935211,269.543243 349.477539,255.388626 339.963440,244.235382 
	C332.903900,235.959610 323.315552,232.035507 312.686707,228.577621 
	C312.686707,243.939880 312.686707,258.693268 312.686707,274.430756 
z"/>
<path fill="#060605" opacity="1.000000" stroke="none" 
	d="
M347.999817,338.763733 
	C305.373871,338.763733 263.247894,338.765381 221.121933,338.757721 
	C219.459641,338.757416 217.768555,338.847626 216.140625,338.586121 
	C211.883331,337.902130 209.009781,334.536072 209.477921,330.619537 
	C209.975098,326.460114 212.383484,324.011627 216.694504,323.738037 
	C218.187897,323.643250 219.689224,323.650879 221.186935,323.650757 
	C271.804688,323.646729 322.422455,323.646088 373.040222,323.648743 
	C381.066467,323.649170 384.821075,326.065887 384.784943,331.181244 
	C384.748749,336.299286 380.920837,338.759796 372.976288,338.762939 
	C364.817474,338.766205 356.658661,338.763702 347.999817,338.763733 
z"/>
<path fill="#040404" opacity="1.000000" stroke="none" 
	d="
M438.673309,273.499939 
	C435.431732,279.117920 433.109070,285.074463 429.081909,289.469055 
	C417.598236,302.000549 400.192780,301.468140 388.708527,288.936829 
	C374.115631,273.013458 374.123291,244.964066 388.724792,229.037155 
	C400.295135,216.416611 418.069427,216.102524 429.544830,228.820526 
	C441.119507,241.648560 443.100311,256.811768 438.673309,273.499939 
M394.824707,270.447266 
	C395.266907,271.518524 395.614014,272.641846 396.167175,273.652374 
	C399.079681,278.972961 402.831177,283.536316 409.466583,283.425629 
	C416.063812,283.315643 419.941772,278.799225 422.532043,273.320892 
	C427.312500,263.210541 427.175415,252.988632 421.748352,243.193558 
	C415.289459,231.536102 403.460815,231.600586 396.837677,243.226624 
	C392.044128,251.641129 391.743713,260.570709 394.824707,270.447266 
z"/>
<path fill="#040403" opacity="1.000000" stroke="none" 
	d="
M204.898346,276.992493 
	C199.394577,262.225800 200.068832,248.172272 208.008698,234.936020 
	C220.365829,214.335876 245.545547,214.198532 257.799377,234.835220 
	C266.995972,250.323196 267.154449,266.590546 258.290771,282.275330 
	C245.967804,304.081604 220.069656,303.908722 207.463943,282.253815 
	C206.548416,280.681061 205.825851,278.995972 204.898346,276.992493 
M248.121597,268.290039 
	C250.656036,258.297333 249.817535,248.784790 243.484695,240.346786 
	C238.277374,233.408447 230.512253,232.634567 224.464905,238.090012 
	C213.772049,247.736237 213.878021,270.647644 224.659103,280.078094 
	C229.861649,284.628845 236.416824,284.916077 241.185501,279.908844 
	C244.058289,276.892365 245.738297,272.739929 248.121597,268.290039 
z"/>
<path fill="#060605" opacity="1.000000" stroke="none" 
	d="
M170.000122,219.317291 
	C176.996185,219.317490 183.492371,219.290482 189.988220,219.325394 
	C196.795334,219.361969 200.177887,221.853867 200.258163,226.804443 
	C200.340393,231.875443 197.061295,234.392776 190.245285,234.459183 
	C186.081924,234.499741 181.918121,234.498077 177.754868,234.545502 
	C177.449738,234.548965 177.147385,234.797470 176.279114,235.182312 
	C176.279114,236.716873 176.279327,238.502884 176.279068,240.288910 
	C176.276718,256.945404 176.326981,273.602203 176.240326,290.258270 
	C176.213730,295.369446 173.236450,298.521210 168.884460,298.559723 
	C164.608200,298.597565 161.561096,295.361786 161.236664,290.386017 
	C161.160965,289.224762 161.214188,288.054901 161.214127,286.888977 
	C161.213318,271.231842 161.213562,255.574707 161.213562,239.917572 
	C161.213562,238.285172 161.213562,236.652786 161.213562,234.456665 
	C155.886536,234.456665 150.948257,234.545731 146.014633,234.432648 
	C140.628052,234.309204 137.224823,231.309982 137.230911,226.930893 
	C137.236969,222.569992 140.653656,219.455109 146.015091,219.357773 
	C153.841110,219.215668 161.671555,219.318726 170.000122,219.317291 
z"/>
<path fill="#050504" opacity="1.000000" stroke="none" 
	d="
M268.999908,378.827332 
	C257.003693,378.826660 245.507507,378.834503 234.011337,378.820374 
	C230.387421,378.815887 226.995117,377.581024 226.209564,373.933594 
	C225.690674,371.524323 226.265015,368.068542 227.770721,366.272461 
	C229.154190,364.622162 232.436295,363.916229 234.886810,363.905518 
	C268.208435,363.759766 301.530945,363.801117 334.853210,363.813538 
	C341.178467,363.815918 344.650238,366.446716 344.690338,371.164398 
	C344.731293,375.982635 341.004913,378.815216 334.478394,378.820526 
	C312.818909,378.838226 291.159424,378.827301 268.999908,378.827332 
z"/>
<path fill="#FCEDCB" opacity="1.000000" stroke="none" 
	d="
M312.686707,273.938721 
	C312.686707,258.693268 312.686707,243.939880 312.686707,228.577621 
	C323.315552,232.035507 332.903900,235.959610 339.963440,244.235382 
	C349.477539,255.388626 346.935211,269.543243 334.169128,276.653748 
	C331.724243,278.015533 329.086426,279.151062 326.405060,279.940826 
	C322.129395,281.200195 317.742493,282.081879 312.686707,283.295074 
	C312.686707,279.965637 312.686707,277.198212 312.686707,273.938721 
z"/>
<path fill="#FBECCB" opacity="1.000000" stroke="none" 
	d="
M394.669617,270.078674 
	C391.743713,260.570709 392.044128,251.641129 396.837677,243.226624 
	C403.460815,231.600586 415.289459,231.536102 421.748352,243.193558 
	C427.175415,252.988632 427.312500,263.210541 422.532043,273.320892 
	C419.941772,278.799225 416.063812,283.315643 409.466583,283.425629 
	C402.831177,283.536316 399.079681,278.972961 396.167175,273.652374 
	C395.614014,272.641846 395.266907,271.518524 394.669617,270.078674 
z"/>
<path fill="#FBECCA" opacity="1.000000" stroke="none" 
	d="
M248.037949,268.694000 
	C245.738297,272.739929 244.058289,276.892365 241.185501,279.908844 
	C236.416824,284.916077 229.861649,284.628845 224.659103,280.078094 
	C213.878021,270.647644 213.772049,247.736237 224.464905,238.090012 
	C230.512253,232.634567 238.277374,233.408447 243.484695,240.346786 
	C249.817535,248.784790 250.656036,258.297333 248.037949,268.694000 
z"/>
</svg>